<svg width="734" height="640" viewBox="0 0 734 640" fill="none" xmlns="http://www.w3.org/2000/svg" xmlns:xlink="http://www.w3.org/1999/xlink">
<rect width="734" height="640" fill="url(#pattern0)"/>
<defs>
<pattern id="pattern0" patternContentUnits="objectBoundingBox" width="1" height="1">
<use xlink:href="#image0_1_86" transform="translate(-0.00408719) scale(0.0013624 0.0015625)"/>
</pattern>
<image id="image0_1_86" width="740" height="640" xlink:href="images/home.png"/>
</defs>
<path d="M222 538L442.8 546L512 532.3V554L443.5 573.7L222 562.7V538Z" fill="#3595F6" fill-opacity="0.75"/>
<path d="M223 537V512L443.3 515.3L513 512V532L443.7 545L223 537Z" fill="#3595F6" fill-opacity="0.75"/>
<path d="M223 511V486H444H513V509L445 516L223 511Z" fill="#3595F6" fill-opacity="0.75"/>
<path d="M223 487V462L444.3 458.3L512 465V487H444" fill="#3595F6" fill-opacity="0.75"/>
<path d="M223 461V435L444.5 431.7L513 442.7V464L444 457.3L223 461Z" fill="#3595F6" fill-opacity="0.75"/>
<path d="M222 434V410.3L443 398L514 421V442.3L443 430L222 434Z" fill="#3595F6" fill-opacity="0.75"/>
<path d="M222 412V387L444.2 370.7L514 399.3V420L443.7 398.3L222 412Z" fill="#3595F6" fill-opacity="0.75"/>
<path d="M222 387V362L444.5 341.7L514 378.3V399L442 370.3L222 387Z" fill="#3595F6" fill-opacity="0.75"/>
<path d="M222 361V337L445 312.3L514 356.3V378L444.7 340L222 361Z" fill="#3595F6" fill-opacity="0.75"/>
<path d="M222 336V312L444.5 283.3L514 334.3V355L443.7 312.7L222 336Z" fill="#3595F6" fill-opacity="0.75"/>
<path d="M221 312V288L443.3 255L514 314.3V334L444 283.3L221 312Z" fill="#3595F6" fill-opacity="0.75"/>
<path d="M222 287V263L443.2 228L513 292V313L444.3 254.7L222 287Z" fill="#3595F6" fill-opacity="0.75"/>
<path d="M222 263V238L444.3 200L513 270.3V291L444 227L222 263Z" fill="#3595F6" fill-opacity="0.75"/>
<path d="M222 237V212L442.8 168.3L513 247.3V270L444 196.7L222 237Z" fill="#3595F6" fill-opacity="0.75"/>
<path d="M223 213V188L443 140L513 225V248L442.3 168.7L223 213Z" fill="#3595F6" fill-opacity="0.75"/>
<path d="M222 188V163L441.8 111L513 203.3V226L443.3 139.7L222 188Z" fill="#3595F6" fill-opacity="0.75"/>
<path d="M222 163V137L444 80.3L513 182V203L443.7 111.3L222 163Z" fill="#3595F6" fill-opacity="0.75"/>

</svg>
